# xmcd CD database file
#
# Track frame offsets:
#	150
#	18740
#	40612
#	61977
#	78862
#	99700
#	114832
#	135570
#	153367
#	171690
#
# Disc length: 2561 seconds
#
# Revision: 0
# Processed by: cddbd v1.5PL3 Copyright (c) Steve Scherf et al.
# Submitted via: CDex 1.51
#
DISCID=7a09ff0a
DTITLE=AKEMI - SECOND WIND
DYEAR=1991
DGENRE=JPop
TTITLE0=KEEO ON DREAM
TTITLE1=STARDUST LOVERS
TTITLE2=TRUE LOVE
TTITLE3=Don't toss in the towel (タオルを投げないで)
TTITLE4=FOLLOW WIND
TTITLE5=SECOND WIND
TTITLE6=YOU GOT A CHANCE
TTITLE7=SUNSET BEACH MEMORY
TTITLE8=ALL OVER AGAIN
TTITLE9=言い訳してよ
EXTD=YEAR: 1991
EXTT0=
EXTT1=
EXTT2=
EXTT3=
EXTT4=
EXTT5=
EXTT6=
EXTT7=
EXTT8=
EXTT9=
PLAYORDER=
